<?xml version="1.0" encoding="utf-8"?>
<!-- Generator: Adobe Illustrator 25.2.3, SVG Export Plug-In . SVG Version: 6.00 Build 0)  -->
<svg version="1.1" id="Layer_1" xmlns="http://www.w3.org/2000/svg" xmlns:xlink="http://www.w3.org/1999/xlink" x="0px" y="0px"
	 viewBox="0 0 12 12" style="enable-background:new 0 0 12 12;" xml:space="preserve">
<style type="text/css">
	.st0{fill:#FCFCFC;}
</style>
<g>
	<path class="st0" d="M6,11.6c-3.1,0-5.6-2.5-5.6-5.6S2.9,0.4,6,0.4s5.6,2.5,5.6,5.6S9.1,11.6,6,11.6z"/>
	<path d="M6,0.8c2.9,0,5.2,2.3,5.2,5.2S8.9,11.2,6,11.2S0.8,8.9,0.8,6S3.1,0.8,6,0.8 M6,0.1C2.7,0.1,0.1,2.7,0.1,6s2.7,5.9,5.9,5.9
		s5.9-2.7,5.9-5.9S9.3,0.1,6,0.1L6,0.1z"/>
</g>
</svg>
